<svg xmlns="http://www.w3.org/2000/svg" width="310" height="401" fill="none"><g filter="url(#a)"><rect width="280" height="371" x="15" y="5" fill="#fff" rx="15"/></g><mask id="b" width="280" height="371" x="15" y="5" maskUnits="userSpaceOnUse" style="mask-type:luminance"><rect width="280" height="371" x="15" y="5" fill="#fff" rx="15"/></mask><g mask="url(#b)"><g fill="#242A45" clip-path="url(#c)"><path d="M83.432 205a.407.407 0 0 1-.42-.42l.04-.18 4.8-12.9c.134-.333.374-.5.72-.5h2.2c.347 0 .587.167.72.5l4.8 12.9.04.18c0 .12-.046.22-.14.3a.384.384 0 0 1-.28.12h-1.78c-.28 0-.473-.127-.58-.38l-.92-2.42h-5.92l-.92 2.42c-.106.253-.3.38-.58.38h-1.78Zm3.98-5.12h4.52l-2.26-6.16-2.26 6.16Zm14.52 5.32c-1.347 0-2.38-.427-3.1-1.28-.72-.867-1.113-2.02-1.18-3.46l-.02-.66.02-.66c.053-1.413.44-2.553 1.16-3.42.733-.88 1.773-1.32 3.12-1.32 1.28 0 2.3.44 3.06 1.32v-4.44c0-.147.047-.26.14-.34a.464.464 0 0 1 .34-.14h1.74c.147 0 .26.047.34.14.093.08.14.193.14.34v13.24a.464.464 0 0 1-.14.34.424.424 0 0 1-.34.14h-1.62a.464.464 0 0 1-.34-.14.464.464 0 0 1-.14-.34v-.74c-.733.947-1.793 1.42-3.18 1.42Zm.76-2.16c.76 0 1.32-.24 1.68-.72.373-.493.58-1.1.62-1.82.013-.16.02-.413.02-.76 0-.36-.007-.62-.02-.78-.027-.667-.233-1.233-.62-1.7-.387-.467-.947-.7-1.68-.7-1.427 0-2.187.88-2.28 2.64l-.02.6.02.6c.093 1.76.853 2.64 2.28 2.64Zm11.775 2.16c-1.347 0-2.38-.427-3.1-1.28-.72-.867-1.113-2.02-1.18-3.46l-.02-.66.02-.66c.053-1.413.44-2.553 1.16-3.42.733-.88 1.773-1.32 3.12-1.32 1.28 0 2.3.44 3.06 1.32v-4.44c0-.147.047-.26.14-.34a.464.464 0 0 1 .34-.14h1.74c.147 0 .26.047.34.14.093.08.14.193.14.34v13.24a.464.464 0 0 1-.14.34.424.424 0 0 1-.34.14h-1.62a.464.464 0 0 1-.34-.14.464.464 0 0 1-.14-.34v-.74c-.733.947-1.793 1.42-3.18 1.42Zm.76-2.16c.76 0 1.32-.24 1.68-.72.373-.493.58-1.1.62-1.82.013-.16.02-.413.02-.76 0-.36-.007-.62-.02-.78-.027-.667-.233-1.233-.62-1.7-.387-.467-.947-.7-1.68-.7-1.427 0-2.187.88-2.28 2.64l-.02.6.02.6c.093 1.76.853 2.64 2.28 2.64Zm17.045 1.96c-1.213 0-2.126-.313-2.74-.94-.613-.64-.92-1.573-.92-2.8v-4.52h-1.58a.466.466 0 0 1-.34-.14.464.464 0 0 1-.14-.34v-1.18c0-.133.047-.247.14-.34a.466.466 0 0 1 .34-.14h1.58v-3.32c0-.147.047-.26.14-.34a.466.466 0 0 1 .34-.14h1.66c.147 0 .26.047.34.14.094.08.14.193.14.34v3.32h2.5c.134 0 .247.047.34.14a.46.46 0 0 1 .14.34v1.18a.46.46 0 0 1-.14.34.463.463 0 0 1-.34.14h-2.5v4.3c0 .573.1 1.007.3 1.3.2.293.527.44.98.44h1.4c.147 0 .26.047.34.14.094.08.14.193.14.34v1.26a.46.46 0 0 1-.14.34.424.424 0 0 1-.34.14h-1.64Zm8.764.2c-1.574 0-2.787-.4-3.64-1.2-.854-.8-1.314-1.907-1.38-3.32l-.02-.88.02-.88c.066-1.4.533-2.5 1.4-3.3.866-.813 2.073-1.22 3.62-1.22 1.533 0 2.733.407 3.6 1.22.866.8 1.333 1.9 1.4 3.3.013.16.02.453.02.88s-.007.72-.02.88c-.067 1.413-.527 2.52-1.38 3.32-.854.8-2.06 1.2-3.62 1.2Zm0-2.02c.706 0 1.246-.22 1.62-.66.386-.44.593-1.087.62-1.94a9.79 9.79 0 0 0 .02-.78 9.79 9.79 0 0 0-.02-.78c-.027-.853-.234-1.5-.62-1.94-.387-.453-.927-.68-1.62-.68-.707 0-1.254.227-1.64.68-.387.44-.594 1.087-.62 1.94l-.02.78.02.78c.026.853.233 1.5.62 1.94.386.44.933.66 1.64.66Zm17.926 2.02c-1.84 0-3.267-.467-4.28-1.4-1-.947-1.533-2.287-1.6-4.02-.013-.36-.02-.947-.02-1.76 0-.827.007-1.427.02-1.8.067-1.707.607-3.033 1.62-3.98 1.013-.96 2.433-1.44 4.26-1.44 1.187 0 2.22.207 3.1.62.88.4 1.56.953 2.04 1.66.493.707.753 1.5.78 2.38v.04a.36.36 0 0 1-.14.28.422.422 0 0 1-.28.1h-1.94c-.16 0-.28-.033-.36-.1-.08-.08-.147-.213-.2-.4-.2-.827-.547-1.407-1.04-1.74-.493-.347-1.147-.52-1.96-.52-1.907 0-2.9 1.067-2.98 3.2-.013.36-.02.913-.02 1.66 0 .747.007 1.313.02 1.7.08 2.133 1.073 3.2 2.98 3.2.8 0 1.447-.167 1.94-.5.507-.347.86-.933 1.06-1.76.053-.187.12-.313.2-.38.08-.08.2-.12.36-.12h1.94c.12 0 .22.04.3.12.093.08.133.18.12.3a4.303 4.303 0 0 1-.78 2.38c-.48.707-1.16 1.267-2.04 1.68-.88.4-1.913.6-3.1.6Zm8.801-.2a.466.466 0 0 1-.34-.14.464.464 0 0 1-.14-.34v-13.24c0-.147.047-.26.14-.34a.466.466 0 0 1 .34-.14h1.82c.147 0 .26.047.34.14.094.08.14.193.14.34v4.56c.8-.96 1.874-1.44 3.22-1.44 1.227 0 2.207.407 2.94 1.22.734.8 1.1 1.893 1.1 3.28v5.62a.46.46 0 0 1-.14.34.424.424 0 0 1-.34.14h-1.82a.49.49 0 0 1-.36-.14.464.464 0 0 1-.14-.34v-5.5c0-.773-.193-1.373-.58-1.8-.373-.44-.913-.66-1.62-.66-.68 0-1.226.22-1.64.66-.413.44-.62 1.04-.62 1.8v5.5a.46.46 0 0 1-.14.34.424.424 0 0 1-.34.14h-1.82Zm12.828 0a.464.464 0 0 1-.34-.14.464.464 0 0 1-.14-.34v-9.42c0-.147.047-.267.14-.36a.464.464 0 0 1 .34-.14h1.64c.147 0 .267.047.36.14.093.093.14.213.14.36v.82c.667-.88 1.627-1.32 2.88-1.32h.84c.147 0 .26.047.34.14.093.08.14.193.14.34v1.46a.464.464 0 0 1-.14.34.424.424 0 0 1-.34.14h-1.58c-.627 0-1.12.18-1.48.54-.36.36-.54.853-.54 1.48v5.48a.464.464 0 0 1-.14.34.464.464 0 0 1-.34.14h-1.78Zm12.632.2c-1.573 0-2.786-.4-3.64-1.2-.853-.8-1.313-1.907-1.38-3.32l-.02-.88.02-.88c.067-1.4.534-2.5 1.4-3.3.867-.813 2.074-1.22 3.62-1.22 1.534 0 2.734.407 3.6 1.22.867.8 1.334 1.9 1.4 3.3.014.16.02.453.02.88s-.006.72-.02.88c-.066 1.413-.526 2.52-1.38 3.32-.853.8-2.06 1.2-3.62 1.2Zm0-2.02c.707 0 1.247-.22 1.62-.66.387-.44.594-1.087.62-1.94.014-.133.02-.393.02-.78s-.006-.647-.02-.78c-.026-.853-.233-1.5-.62-1.94-.386-.453-.926-.68-1.62-.68-.706 0-1.253.227-1.64.68-.386.44-.593 1.087-.62 1.94l-.02.78.02.78c.027.853.234 1.5.62 1.94.387.44.934.66 1.64.66Zm7.966 1.82a.463.463 0 0 1-.34-.14.46.46 0 0 1-.14-.34v-9.44c0-.147.046-.26.14-.34a.463.463 0 0 1 .34-.14h1.58c.146 0 .26.047.34.14.093.08.14.193.14.34v.68c.72-.907 1.686-1.36 2.9-1.36 1.48 0 2.513.593 3.1 1.78.32-.533.773-.96 1.36-1.28.586-.333 1.22-.5 1.9-.5 1.093 0 1.986.373 2.68 1.12.693.747 1.04 1.833 1.04 3.26v5.74a.464.464 0 0 1-.14.34.425.425 0 0 1-.34.14h-1.66a.463.463 0 0 1-.34-.14.46.46 0 0 1-.14-.34v-5.58c0-.84-.18-1.447-.54-1.82-.347-.373-.807-.56-1.38-.56-.52 0-.967.193-1.34.58-.36.373-.54.973-.54 1.8v5.58a.464.464 0 0 1-.14.34.425.425 0 0 1-.34.14h-1.68a.463.463 0 0 1-.34-.14.46.46 0 0 1-.14-.34v-5.58c0-.827-.18-1.427-.54-1.8-.36-.387-.82-.58-1.38-.58-.52 0-.967.193-1.34.58-.36.373-.54.973-.54 1.8v5.58a.464.464 0 0 1-.14.34.425.425 0 0 1-.34.14h-1.7Zm22.336.2c-1.493 0-2.68-.427-3.56-1.28-.867-.853-1.327-2.067-1.38-3.64l-.02-.5c0-1.667.433-2.98 1.3-3.94.88-.96 2.093-1.44 3.64-1.44 1.587 0 2.807.48 3.66 1.44.867.96 1.3 2.24 1.3 3.84v.42a.464.464 0 0 1-.14.34.488.488 0 0 1-.36.14h-6.64v.16c.027.747.227 1.367.6 1.86.387.48.913.72 1.58.72.76 0 1.38-.307 1.86-.92.12-.147.213-.233.28-.26.067-.04.18-.06.34-.06h1.76c.12 0 .22.033.3.1.093.067.14.16.14.28 0 .32-.193.7-.58 1.14-.373.427-.913.8-1.62 1.12-.707.32-1.527.48-2.46.48Zm2.18-6.32v-.04c0-.787-.2-1.413-.6-1.88-.387-.48-.92-.72-1.6-.72s-1.213.24-1.6.72c-.387.467-.58 1.093-.58 1.88v.04h4.38Z"/><path d="M86.975 235c-.1 0-.185-.03-.255-.09a.378.378 0 0 1-.09-.255v-9.795c0-.11.03-.195.09-.255a.318.318 0 0 1 .255-.105h.705c.18 0 .305.075.375.225l3.195 6.135 3.225-6.135c.08-.15.2-.225.36-.225h.705c.11 0 .195.035.255.105.06.06.09.145.09.255v9.795c0 .1-.035.185-.105.255-.06.06-.14.09-.24.09h-.69c-.1 0-.18-.03-.24-.09a.378.378 0 0 1-.09-.255V227.2l-2.565 4.965c-.1.21-.26.315-.48.315h-.45c-.21 0-.37-.105-.48-.315l-2.55-4.965v7.455c0 .1-.035.185-.105.255-.06.06-.14.09-.24.09h-.675Zm11.58-9.27c-.1 0-.185-.03-.255-.09a.378.378 0 0 1-.09-.255v-.78c0-.1.03-.185.09-.255a.347.347 0 0 1 .255-.105h.885c.1 0 .185.035.255.105.07.07.105.155.105.255v.78c0 .1-.035.185-.105.255a.378.378 0 0 1-.255.09h-.885Zm.12 9.27c-.1 0-.185-.03-.255-.09a.378.378 0 0 1-.09-.255v-7.11c0-.1.03-.18.09-.24a.347.347 0 0 1 .255-.105h.66a.3.3 0 0 1 .24.105.3.3 0 0 1 .105.24v7.11c0 .1-.035.185-.105.255-.06.06-.14.09-.24.09h-.66Zm3.603 0c-.1 0-.185-.03-.255-.09a.378.378 0 0 1-.09-.255v-7.11c0-.1.03-.18.09-.24a.347.347 0 0 1 .255-.105h.645c.11 0 .195.03.255.09s.09.145.09.255v.66c.3-.37.645-.655 1.035-.855.4-.2.895-.3 1.485-.3.96 0 1.705.31 2.235.93.53.61.795 1.42.795 2.43v4.245c0 .1-.035.185-.105.255-.06.06-.14.09-.24.09h-.69c-.1 0-.185-.03-.255-.09a.378.378 0 0 1-.09-.255V230.5c0-.72-.175-1.28-.525-1.68-.35-.4-.85-.6-1.5-.6-.64 0-1.15.205-1.53.615-.38.4-.57.955-.57 1.665v4.155c0 .1-.035.185-.105.255-.06.06-.14.09-.24.09h-.69Zm8.933-9.27c-.1 0-.185-.03-.255-.09a.378.378 0 0 1-.09-.255v-.78c0-.1.03-.185.09-.255a.347.347 0 0 1 .255-.105h.885c.1 0 .185.035.255.105.07.07.105.155.105.255v.78c0 .1-.035.185-.105.255a.378.378 0 0 1-.255.09h-.885Zm.12 9.27c-.1 0-.185-.03-.255-.09a.378.378 0 0 1-.09-.255v-7.11c0-.1.03-.18.09-.24a.347.347 0 0 1 .255-.105h.66a.3.3 0 0 1 .24.105.3.3 0 0 1 .105.24v7.11c0 .1-.035.185-.105.255-.06.06-.14.09-.24.09h-.66Zm3.603 0c-.1 0-.185-.03-.255-.09a.378.378 0 0 1-.09-.255v-7.11c0-.1.03-.18.09-.24a.347.347 0 0 1 .255-.105h.63a.3.3 0 0 1 .24.105c.06.06.09.14.09.24v.51c.54-.67 1.27-1.005 2.19-1.005 1.1 0 1.88.46 2.34 1.38.24-.42.58-.755 1.02-1.005.45-.25.95-.375 1.5-.375.82 0 1.49.28 2.01.84.52.56.78 1.37.78 2.43v4.335c0 .1-.035.185-.105.255-.06.06-.14.09-.24.09h-.645c-.1 0-.185-.03-.255-.09a.378.378 0 0 1-.09-.255v-4.2c0-.8-.165-1.37-.495-1.71-.33-.35-.765-.525-1.305-.525-.48 0-.895.18-1.245.54-.34.35-.51.915-.51 1.695v4.2c0 .1-.035.185-.105.255-.06.06-.14.09-.24.09h-.66c-.1 0-.185-.03-.255-.09a.378.378 0 0 1-.09-.255v-4.2c0-.79-.175-1.36-.525-1.71-.34-.35-.765-.525-1.275-.525-.48 0-.895.175-1.245.525-.34.35-.51.915-.51 1.695v4.215c0 .1-.035.185-.105.255-.06.06-.14.09-.24.09h-.66Zm15.881.15c-.95 0-1.685-.305-2.205-.915-.52-.62-.78-1.44-.78-2.46v-4.23c0-.1.03-.18.09-.24a.347.347 0 0 1 .255-.105h.69a.3.3 0 0 1 .24.105.3.3 0 0 1 .105.24v4.155c0 1.52.66 2.28 1.98 2.28.64 0 1.145-.2 1.515-.6.38-.41.57-.97.57-1.68v-4.155c0-.1.03-.18.09-.24a.347.347 0 0 1 .255-.105h.69a.3.3 0 0 1 .24.105.3.3 0 0 1 .105.24v7.11c0 .1-.035.185-.105.255-.06.06-.14.09-.24.09h-.645c-.1 0-.185-.03-.255-.09a.378.378 0 0 1-.09-.255v-.675c-.29.39-.63.685-1.02.885-.39.19-.885.285-1.485.285Zm6.429-.15c-.1 0-.185-.03-.255-.09a.378.378 0 0 1-.09-.255v-7.11c0-.1.03-.18.09-.24a.347.347 0 0 1 .255-.105h.63a.3.3 0 0 1 .24.105c.06.06.09.14.09.24v.51c.54-.67 1.27-1.005 2.19-1.005 1.1 0 1.88.46 2.34 1.38.24-.42.58-.755 1.02-1.005.45-.25.95-.375 1.5-.375.82 0 1.49.28 2.01.84.52.56.78 1.37.78 2.43v4.335c0 .1-.035.185-.105.255-.06.06-.14.09-.24.09h-.645c-.1 0-.185-.03-.255-.09a.378.378 0 0 1-.09-.255v-4.2c0-.8-.165-1.37-.495-1.71-.33-.35-.765-.525-1.305-.525-.48 0-.895.18-1.245.54-.34.35-.51.915-.51 1.695v4.2c0 .1-.035.185-.105.255-.06.06-.14.09-.24.09h-.66c-.1 0-.185-.03-.255-.09a.378.378 0 0 1-.09-.255v-4.2c0-.79-.175-1.36-.525-1.71-.34-.35-.765-.525-1.275-.525-.48 0-.895.175-1.245.525-.34.35-.51.915-.51 1.695v4.215c0 .1-.035.185-.105.255-.06.06-.14.09-.24.09h-.66Zm18.967 0c-.26 0-.445-.125-.555-.375l-2.79-6.96a.526.526 0 0 1-.015-.15c0-.09.03-.165.09-.225s.13-.09.21-.09h.69c.16 0 .28.08.36.24l2.31 5.985 2.31-5.985c.02-.06.06-.115.12-.165.07-.05.15-.075.24-.075h.69c.08 0 .15.03.21.09s.09.135.09.225l-.03.15-2.775 6.96c-.11.25-.295.375-.555.375h-.6Zm8.373.15c-1.02 0-1.835-.315-2.445-.945-.61-.64-.945-1.51-1.005-2.61l-.015-.51.015-.495c.06-1.08.395-1.94 1.005-2.58.61-.64 1.425-.96 2.445-.96 1.1 0 1.95.35 2.55 1.05.61.7.915 1.65.915 2.85v.27c0 .1-.035.185-.105.255-.06.06-.14.09-.24.09h-5.205v.135c.03.65.23 1.205.6 1.665.37.46.86.69 1.47.69.47 0 .85-.09 1.14-.27.3-.19.525-.385.675-.585.09-.12.16-.19.21-.21a.526.526 0 0 1 .255-.045h.66a.34.34 0 0 1 .225.075.23.23 0 0 1 .105.195c0 .22-.135.485-.405.795-.27.31-.655.58-1.155.81-.49.22-1.055.33-1.695.33Zm2.1-4.605v-.045c0-.7-.19-1.27-.57-1.71-.38-.44-.89-.66-1.53-.66-.65 0-1.16.22-1.53.66-.37.44-.555 1.01-.555 1.71v.045h4.185Zm3.534 4.455c-.1 0-.185-.03-.255-.09a.378.378 0 0 1-.09-.255v-7.095c0-.1.03-.185.09-.255a.347.347 0 0 1 .255-.105h.63c.11 0 .195.035.255.105.07.06.105.145.105.255v.66c.41-.68 1.105-1.02 2.085-1.02h.585c.11 0 .195.03.255.09s.09.145.09.255v.555c0 .1-.03.185-.09.255-.06.06-.145.09-.255.09h-.855c-.55 0-.985.16-1.305.48-.31.32-.465.755-.465 1.305v4.425c0 .1-.035.185-.105.255a.378.378 0 0 1-.255.09h-.675Zm7.964.15c-.69 0-1.275-.11-1.755-.33-.47-.23-.82-.49-1.05-.78-.23-.29-.345-.53-.345-.72 0-.1.035-.175.105-.225a.34.34 0 0 1 .225-.09h.63c.06 0 .105.01.135.03.04.02.09.065.15.135.23.28.485.5.765.66.29.16.675.24 1.155.24.54 0 .97-.1 1.29-.3a.96.96 0 0 0 .495-.87c0-.25-.07-.45-.21-.6-.14-.15-.375-.285-.705-.405-.32-.12-.8-.25-1.44-.39-.87-.19-1.485-.465-1.845-.825-.36-.36-.54-.825-.54-1.395 0-.37.11-.725.33-1.065.22-.35.545-.63.975-.84.44-.22.96-.33 1.56-.33.63 0 1.165.105 1.605.315.45.21.785.455 1.005.735.23.28.345.515.345.705 0 .09-.035.165-.105.225a.305.305 0 0 1-.225.09h-.57c-.14 0-.24-.055-.3-.165a4.4 4.4 0 0 0-.435-.435c-.11-.11-.275-.2-.495-.27-.22-.08-.495-.12-.825-.12-.49 0-.865.105-1.125.315-.26.2-.39.47-.39.81 0 .21.055.39.165.54.11.14.32.275.63.405.31.12.77.245 1.38.375.95.2 1.62.485 2.01.855.4.37.6.845.6 1.425 0 .43-.125.82-.375 1.17-.24.35-.605.625-1.095.825-.48.2-1.055.3-1.725.3Zm5.172-9.42c-.1 0-.185-.03-.255-.09a.378.378 0 0 1-.09-.255v-.78c0-.1.03-.185.09-.255a.347.347 0 0 1 .255-.105h.885c.1 0 .185.035.255.105.07.07.105.155.105.255v.78c0 .1-.035.185-.105.255a.378.378 0 0 1-.255.09h-.885Zm.12 9.27c-.1 0-.185-.03-.255-.09a.378.378 0 0 1-.09-.255v-7.11c0-.1.03-.18.09-.24a.347.347 0 0 1 .255-.105h.66a.3.3 0 0 1 .24.105.3.3 0 0 1 .105.24v7.11c0 .1-.035.185-.105.255-.06.06-.14.09-.24.09h-.66Zm6.424.15c-1.1 0-1.95-.31-2.55-.93-.59-.62-.905-1.445-.945-2.475l-.015-.645.015-.645c.04-1.03.36-1.855.96-2.475.61-.62 1.455-.93 2.535-.93s1.92.31 2.52.93c.61.62.935 1.445.975 2.475a7.124 7.124 0 0 1 0 1.29c-.04 1.03-.36 1.855-.96 2.475-.59.62-1.435.93-2.535.93Zm0-1.125c.64 0 1.145-.2 1.515-.6.38-.41.585-.995.615-1.755.01-.1.015-.29.015-.57 0-.28-.005-.47-.015-.57-.03-.76-.235-1.34-.615-1.74-.37-.41-.875-.615-1.515-.615-.64 0-1.15.205-1.53.615-.37.4-.57.98-.6 1.74l-.015.57.015.57c.03.76.23 1.345.6 1.755.38.4.89.6 1.53.6Zm5.764.975c-.1 0-.185-.03-.255-.09a.378.378 0 0 1-.09-.255v-7.11c0-.1.03-.18.09-.24a.347.347 0 0 1 .255-.105h.645c.11 0 .195.03.255.09s.09.145.09.255v.66c.3-.37.645-.655 1.035-.855.4-.2.895-.3 1.485-.3.96 0 1.705.31 2.235.93.53.61.795 1.42.795 2.43v4.245c0 .1-.035.185-.105.255-.06.06-.14.09-.24.09h-.69c-.1 0-.185-.03-.255-.09a.378.378 0 0 1-.09-.255V230.5c0-.72-.175-1.28-.525-1.68-.35-.4-.85-.6-1.5-.6-.64 0-1.15.205-1.53.615-.38.4-.57.955-.57 1.665v4.155c0 .1-.035.185-.105.255-.06.06-.14.09-.24.09h-.69Zm15.879.15c-.8 0-1.495-.16-2.085-.48a3.457 3.457 0 0 1-1.335-1.32c-.3-.55-.45-1.15-.45-1.8 0-.86.345-1.78 1.035-2.76l2.865-3.99c.01-.01.035-.045.075-.105.05-.06.11-.105.18-.135.07-.04.15-.06.24-.06h.735c.09 0 .16.035.21.105.06.06.09.135.09.225 0 .05-.025.115-.075.195l-2.19 3.06c.26-.06.55-.09.87-.09.73 0 1.37.165 1.92.495.56.32.99.75 1.29 1.29.31.53.465 1.115.465 1.755 0 .64-.155 1.24-.465 1.8-.3.55-.74.99-1.32 1.32-.58.33-1.265.495-2.055.495Zm-.015-1.245c.44 0 .845-.09 1.215-.27.37-.18.665-.445.885-.795.22-.36.33-.79.33-1.29 0-.49-.115-.91-.345-1.26-.22-.36-.515-.63-.885-.81-.37-.19-.77-.285-1.2-.285-.43 0-.83.095-1.2.285-.37.18-.665.45-.885.81-.22.35-.33.77-.33 1.26 0 .5.11.93.33 1.29.22.35.515.615.885.795.37.18.77.27 1.2.27ZM217.01 235c-.1 0-.185-.03-.255-.09a.378.378 0 0 1-.09-.255v-.45c0-.23.125-.45.375-.66l3.27-3.255c.74-.63 1.25-1.145 1.53-1.545.28-.4.42-.825.42-1.275 0-.59-.165-1.05-.495-1.38-.33-.34-.81-.51-1.44-.51-.6 0-1.075.175-1.425.525-.35.35-.565.82-.645 1.41a.393.393 0 0 1-.15.255c-.08.06-.16.09-.24.09h-.72a.305.305 0 0 1-.225-.09.288.288 0 0 1-.09-.21c.02-.53.16-1.04.42-1.53.27-.5.665-.905 1.185-1.215.52-.32 1.15-.48 1.89-.48 1.12 0 1.96.295 2.52.885.57.58.855 1.32.855 2.22 0 .63-.155 1.2-.465 1.71-.3.5-.775 1.03-1.425 1.59l-2.955 3h4.725c.11 0 .195.03.255.09s.09.145.09.255v.57c0 .1-.035.185-.105.255-.06.06-.14.09-.24.09h-6.57Z" opacity=".5"/></g><path fill="#495DCF" fill-opacity=".2" fill-rule="evenodd" d="M17 278a2 2 0 1 1-4 0 2 2 0 0 1 4 0Zm280 0a2 2 0 1 1-3.999.001A2 2 0 0 1 297 278Zm-19 2a2 2 0 1 0 .001-3.999A2 2 0 0 0 278 280Zm-33-2a2 2 0 1 1-3.999.001A2 2 0 0 1 245 278Zm-37 2a2 2 0 1 0 .001-3.999A2 2 0 0 0 208 280Zm-33-2a2 2 0 1 1-3.999.001A2 2 0 0 1 175 278Zm-20 2a2 2 0 1 0 .001-3.999A2 2 0 0 0 155 280Zm-15-2a2 2 0 1 1-3.999.001A2 2 0 0 1 140 278Zm120 2a2 2 0 1 0 .001-3.999A2 2 0 0 0 260 280Zm-33-2a2 2 0 1 1-3.999.001A2 2 0 0 1 227 278Zm-37 2a2 2 0 1 0 .001-3.999A2 2 0 0 0 190 280Zm-68-2a2 2 0 1 1-3.999.001A2 2 0 0 1 122 278Zm-19 2a2 2 0 1 0 .001-3.999A2 2 0 0 0 103 280Zm-16-2a2 2 0 1 1-4 0 2 2 0 0 1 4 0Zm-19 2a2 2 0 1 0 0-4 2 2 0 0 0 0 4Zm-16-2a2 2 0 1 1-4 0 2 2 0 0 1 4 0Zm-19 2a2 2 0 1 0 0-4 2 2 0 0 0 0 4Z" clip-rule="evenodd"/><g filter="url(#d)"><rect width="232" height="48" x="39" y="304" fill="#5267DF" rx="5"/></g><path fill="#fff" d="M75.215 333a.285.285 0 0 1-.294-.294l.028-.126 3.36-9.03c.093-.233.26-.35.504-.35h1.54c.242 0 .41.117.504.35l3.36 9.03.028.126a.265.265 0 0 1-.098.21.269.269 0 0 1-.196.084h-1.246a.406.406 0 0 1-.406-.266l-.644-1.694H77.51l-.644 1.694a.406.406 0 0 1-.406.266h-1.246ZM78 329.416h3.164l-1.582-4.312L78 329.416Zm10.238 3.724c-.942 0-1.666-.299-2.17-.896-.504-.607-.78-1.414-.826-2.422l-.014-.462.014-.462c.038-.989.308-1.787.812-2.394.514-.616 1.242-.924 2.184-.924.896 0 1.61.308 2.142.924v-3.108c0-.103.033-.182.098-.238a.325.325 0 0 1 .238-.098h1.218c.103 0 .182.033.238.098a.296.296 0 0 1 .098.238v9.268a.324.324 0 0 1-.098.238.298.298 0 0 1-.238.098h-1.134a.325.325 0 0 1-.238-.098.324.324 0 0 1-.098-.238v-.518c-.513.663-1.255.994-2.226.994Zm.532-1.512c.532 0 .924-.168 1.176-.504.262-.345.406-.77.434-1.274a7.16 7.16 0 0 0 .014-.532c0-.252-.004-.434-.014-.546-.018-.467-.163-.863-.434-1.19-.27-.327-.662-.49-1.176-.49-.998 0-1.53.616-1.596 1.848l-.014.42.014.42c.066 1.232.598 1.848 1.596 1.848Zm8.318 1.512c-.943 0-1.666-.299-2.17-.896-.504-.607-.78-1.414-.826-2.422l-.014-.462.014-.462c.037-.989.308-1.787.812-2.394.513-.616 1.241-.924 2.184-.924.896 0 1.61.308 2.142.924v-3.108c0-.103.033-.182.098-.238a.325.325 0 0 1 .238-.098h1.218c.103 0 .182.033.238.098a.297.297 0 0 1 .098.238v9.268a.325.325 0 0 1-.098.238.297.297 0 0 1-.238.098h-1.134a.325.325 0 0 1-.238-.098.324.324 0 0 1-.098-.238v-.518c-.513.663-1.255.994-2.226.994Zm.532-1.512c.532 0 .924-.168 1.176-.504.261-.345.406-.77.434-1.274a7.16 7.16 0 0 0 .014-.532c0-.252-.005-.434-.014-.546-.019-.467-.163-.863-.434-1.19-.27-.327-.663-.49-1.176-.49-.999 0-1.53.616-1.596 1.848l-.014.42.014.42c.065 1.232.597 1.848 1.596 1.848Zm12.243 1.512c-.681 0-1.279-.117-1.792-.35-.513-.233-.915-.56-1.204-.98-.28-.429-.42-.924-.42-1.484 0-.579.168-1.078.504-1.498.336-.429.812-.821 1.428-1.176-.392-.42-.677-.798-.854-1.134a2.405 2.405 0 0 1-.252-1.064c0-.429.112-.826.336-1.19.224-.364.551-.653.98-.868.429-.224.938-.336 1.526-.336.56 0 1.045.107 1.456.322.42.205.742.49.966.854.224.364.336.761.336 1.19 0 .551-.173 1.022-.518 1.414-.345.392-.849.775-1.512 1.148l2.002 1.974a6.929 6.929 0 0 0 .728-1.848.24.24 0 0 1 .084-.168.315.315 0 0 1 .21-.07h1.036c.084 0 .154.028.21.084a.268.268 0 0 1 .084.196c-.009.364-.14.821-.392 1.372a8.284 8.284 0 0 1-.896 1.498l1.498 1.512a.294.294 0 0 1 .098.21.245.245 0 0 1-.07.182.264.264 0 0 1-.196.07h-1.372a.494.494 0 0 1-.364-.14l-.77-.742c-.765.681-1.722 1.022-2.87 1.022Zm-.014-6.216c.457-.243.803-.471 1.036-.686.233-.215.35-.471.35-.77a.918.918 0 0 0-.322-.728 1.14 1.14 0 0 0-.798-.294c-.308 0-.574.093-.798.28a.934.934 0 0 0-.322.742c0 .215.061.429.182.644.121.215.345.485.672.812Zm.014 4.746c.709 0 1.302-.238 1.778-.714l-2.226-2.184c-.793.429-1.19.924-1.19 1.484 0 .429.159.775.476 1.036.327.252.714.378 1.162.378Zm11.06 1.33a.325.325 0 0 1-.238-.098.325.325 0 0 1-.098-.238v-9.128c0-.103.033-.182.098-.238a.325.325 0 0 1 .238-.098h1.344c.103 0 .182.033.238.098a.297.297 0 0 1 .098.238v9.128a.325.325 0 0 1-.098.238.297.297 0 0 1-.238.098h-1.344Zm4.279 0a.327.327 0 0 1-.238-.098.325.325 0 0 1-.098-.238v-6.608c0-.103.033-.182.098-.238a.327.327 0 0 1 .238-.098h1.162c.103 0 .182.033.238.098.066.056.098.135.098.238v.574c.57-.7 1.349-1.05 2.338-1.05.859 0 1.54.28 2.044.84.504.56.756 1.33.756 2.31v3.934a.321.321 0 0 1-.098.238.297.297 0 0 1-.238.098h-1.26a.327.327 0 0 1-.238-.098.325.325 0 0 1-.098-.238v-3.85c0-.541-.135-.961-.406-1.26-.261-.308-.639-.462-1.134-.462-.476 0-.858.154-1.148.462-.289.308-.434.728-.434 1.26v3.85a.321.321 0 0 1-.098.238.297.297 0 0 1-.238.098h-1.246Zm11.436.14c-.709 0-1.302-.107-1.778-.322-.476-.215-.83-.462-1.064-.742-.224-.289-.336-.537-.336-.742 0-.093.028-.168.084-.224a.336.336 0 0 1 .224-.084h1.148c.075 0 .14.037.196.112.047.037.15.126.308.266.168.14.355.252.56.336.215.075.448.112.7.112.374 0 .677-.07.91-.21a.706.706 0 0 0 .35-.63.605.605 0 0 0-.168-.448c-.102-.121-.294-.229-.574-.322-.27-.103-.681-.215-1.232-.336-.793-.168-1.381-.425-1.764-.77-.373-.345-.56-.803-.56-1.372 0-.373.112-.723.336-1.05.224-.336.556-.607.994-.812.448-.215.98-.322 1.596-.322.635 0 1.181.103 1.638.308.458.196.803.434 1.036.714.243.28.364.527.364.742a.305.305 0 0 1-.098.224.285.285 0 0 1-.21.084h-1.05a.28.28 0 0 1-.238-.112 9.061 9.061 0 0 1-.322-.252 1.596 1.596 0 0 0-.476-.308 1.65 1.65 0 0 0-.644-.112c-.345 0-.611.075-.798.224a.718.718 0 0 0-.28.588.68.68 0 0 0 .126.42c.094.112.276.219.546.322.271.093.677.191 1.218.294 1.68.327 2.52 1.059 2.52 2.198 0 .663-.289 1.199-.868 1.61-.569.411-1.367.616-2.394.616Zm8.22-.14c-.849 0-1.489-.219-1.918-.658-.429-.448-.644-1.101-.644-1.96v-3.164h-1.106a.325.325 0 0 1-.238-.098.325.325 0 0 1-.098-.238v-.826c0-.093.033-.173.098-.238a.325.325 0 0 1 .238-.098h1.106v-2.324c0-.103.033-.182.098-.238a.325.325 0 0 1 .238-.098h1.162c.103 0 .182.033.238.098a.297.297 0 0 1 .098.238v2.324h1.75c.093 0 .173.033.238.098a.325.325 0 0 1 .098.238v.826a.325.325 0 0 1-.098.238.325.325 0 0 1-.238.098h-1.75v3.01c0 .401.07.705.21.91.14.205.369.308.686.308h.98c.103 0 .182.033.238.098a.297.297 0 0 1 .098.238v.882a.325.325 0 0 1-.098.238.297.297 0 0 1-.238.098h-1.148Zm5.089.14c-.476 0-.915-.093-1.316-.28a2.497 2.497 0 0 1-.938-.784 1.866 1.866 0 0 1-.336-1.078c0-.635.257-1.148.77-1.54.513-.392 1.218-.658 2.114-.798l1.918-.28v-.294c0-.401-.103-.705-.308-.91-.205-.205-.532-.308-.98-.308-.308 0-.555.056-.742.168a2.381 2.381 0 0 0-.462.35l-.224.224c-.037.112-.107.168-.21.168h-1.092a.334.334 0 0 1-.224-.084.303.303 0 0 1-.084-.224c.009-.233.121-.495.336-.784.224-.299.565-.555 1.022-.77.457-.224 1.022-.336 1.694-.336 1.101 0 1.904.247 2.408.742s.756 1.143.756 1.946v4.396a.325.325 0 0 1-.098.238.297.297 0 0 1-.238.098h-1.162a.325.325 0 0 1-.238-.098.325.325 0 0 1-.098-.238v-.546a2.35 2.35 0 0 1-.868.742c-.373.187-.84.28-1.4.28Zm.476-1.344c.513 0 .933-.168 1.26-.504.327-.336.49-.821.49-1.456v-.28l-1.4.224c-1.073.168-1.61.527-1.61 1.078 0 .299.121.532.364.7.252.159.551.238.896.238Zm6.022 1.204a.325.325 0 0 1-.238-.098.325.325 0 0 1-.098-.238v-9.268c0-.103.033-.182.098-.238a.325.325 0 0 1 .238-.098h1.176c.103 0 .182.033.238.098a.297.297 0 0 1 .098.238v9.268a.325.325 0 0 1-.098.238.297.297 0 0 1-.238.098h-1.176Zm3.969 0a.324.324 0 0 1-.238-.098.321.321 0 0 1-.098-.238v-9.268c0-.103.032-.182.098-.238a.324.324 0 0 1 .238-.098h1.176c.102 0 .182.033.238.098a.297.297 0 0 1 .098.238v9.268a.325.325 0 0 1-.098.238.298.298 0 0 1-.238.098h-1.176Zm7.558 0a.325.325 0 0 1-.238-.098.325.325 0 0 1-.098-.238v-9.114c0-.103.028-.187.084-.252a.341.341 0 0 1 .252-.098h6.174c.103 0 .187.033.252.098a.341.341 0 0 1 .098.252v.938a.341.341 0 0 1-.098.252.372.372 0 0 1-.252.084h-4.592v2.45h4.284c.103 0 .187.033.252.098a.341.341 0 0 1 .098.252v.882a.341.341 0 0 1-.098.252.372.372 0 0 1-.252.084h-4.284v2.534h4.704c.103 0 .187.033.252.098a.297.297 0 0 1 .098.238v.952a.341.341 0 0 1-.098.252.372.372 0 0 1-.252.084h-6.286Zm8.161 0a.334.334 0 0 1-.224-.084.334.334 0 0 1-.084-.224.39.39 0 0 1 .084-.238l2.394-3.192-2.212-2.996a.39.39 0 0 1-.084-.238c0-.084.028-.154.084-.21a.31.31 0 0 1 .224-.098h1.232c.102 0 .177.023.224.07a.7.7 0 0 1 .168.168l1.568 2.086 1.554-2.086c.009-.009.042-.051.098-.126.065-.075.163-.112.294-.112h1.19c.084 0 .154.033.21.098a.268.268 0 0 1 .084.196.41.41 0 0 1-.084.252l-2.24 3.01 2.408 3.178a.39.39 0 0 1 .084.238.31.31 0 0 1-.098.224.285.285 0 0 1-.21.084h-1.288c-.15 0-.276-.075-.378-.224l-1.68-2.212-1.694 2.212c-.103.149-.229.224-.378.224h-1.246Zm11.778 0c-.85 0-1.489-.219-1.918-.658-.43-.448-.644-1.101-.644-1.96v-3.164h-1.106a.324.324 0 0 1-.238-.098.321.321 0 0 1-.098-.238v-.826c0-.093.032-.173.098-.238a.324.324 0 0 1 .238-.098h1.106v-2.324c0-.103.032-.182.098-.238a.324.324 0 0 1 .238-.098h1.162c.102 0 .182.033.238.098a.297.297 0 0 1 .098.238v2.324h1.75c.093 0 .172.033.238.098a.325.325 0 0 1 .098.238v.826a.325.325 0 0 1-.098.238.327.327 0 0 1-.238.098h-1.75v3.01c0 .401.07.705.21.91.14.205.368.308.686.308h.98c.102 0 .182.033.238.098a.297.297 0 0 1 .098.238v.882a.325.325 0 0 1-.098.238.298.298 0 0 1-.238.098h-1.148Zm6.125.14c-1.045 0-1.876-.299-2.492-.896-.607-.597-.929-1.447-.966-2.548l-.014-.35c0-1.167.303-2.086.91-2.758.616-.672 1.465-1.008 2.548-1.008 1.111 0 1.965.336 2.562 1.008.607.672.91 1.568.91 2.688v.294a.325.325 0 0 1-.098.238.341.341 0 0 1-.252.098h-4.648v.112c.019.523.159.957.42 1.302.271.336.639.504 1.106.504.532 0 .966-.215 1.302-.644.084-.103.149-.163.196-.182a.492.492 0 0 1 .238-.042h1.232c.084 0 .154.023.21.07a.228.228 0 0 1 .098.196c0 .224-.135.49-.406.798-.261.299-.639.56-1.134.784-.495.224-1.069.336-1.722.336Zm1.526-4.424v-.028c0-.551-.14-.989-.42-1.316-.271-.336-.644-.504-1.12-.504-.476 0-.849.168-1.12.504-.271.327-.406.765-.406 1.316v.028h3.066Zm4.004 4.284a.324.324 0 0 1-.238-.098.321.321 0 0 1-.098-.238v-6.608c0-.103.032-.182.098-.238a.324.324 0 0 1 .238-.098h1.162c.102 0 .182.033.238.098a.297.297 0 0 1 .098.238v.574c.569-.7 1.348-1.05 2.338-1.05.858 0 1.54.28 2.044.84.504.56.756 1.33.756 2.31v3.934a.325.325 0 0 1-.098.238.298.298 0 0 1-.238.098h-1.26a.324.324 0 0 1-.238-.098.321.321 0 0 1-.098-.238v-3.85c0-.541-.136-.961-.406-1.26-.262-.308-.64-.462-1.134-.462-.476 0-.859.154-1.148.462-.29.308-.434.728-.434 1.26v3.85a.325.325 0 0 1-.098.238.298.298 0 0 1-.238.098h-1.246Zm11.436.14c-.71 0-1.302-.107-1.778-.322-.476-.215-.831-.462-1.064-.742-.224-.289-.336-.537-.336-.742 0-.093.028-.168.084-.224a.334.334 0 0 1 .224-.084h1.148c.074 0 .14.037.196.112.046.037.149.126.308.266.168.14.354.252.56.336.214.075.448.112.7.112.373 0 .676-.07.91-.21a.708.708 0 0 0 .35-.63.605.605 0 0 0-.168-.448c-.103-.121-.294-.229-.574-.322-.271-.103-.682-.215-1.232-.336-.794-.168-1.382-.425-1.764-.77-.374-.345-.56-.803-.56-1.372 0-.373.112-.723.336-1.05.224-.336.555-.607.994-.812.448-.215.98-.322 1.596-.322.634 0 1.18.103 1.638.308.457.196.802.434 1.036.714.242.28.364.527.364.742a.31.31 0 0 1-.098.224.285.285 0 0 1-.21.084h-1.05a.279.279 0 0 1-.238-.112 7.502 7.502 0 0 1-.322-.252 1.609 1.609 0 0 0-.476-.308 1.654 1.654 0 0 0-.644-.112c-.346 0-.612.075-.798.224a.715.715 0 0 0-.28.588.68.68 0 0 0 .126.42c.093.112.275.219.546.322.27.093.676.191 1.218.294 1.68.327 2.52 1.059 2.52 2.198 0 .663-.29 1.199-.868 1.61-.57.411-1.368.616-2.394.616Zm5.222-8.61a.327.327 0 0 1-.238-.098.325.325 0 0 1-.098-.238v-1.022c0-.103.033-.187.098-.252a.327.327 0 0 1 .238-.098h1.288c.103 0 .187.033.252.098a.338.338 0 0 1 .098.252v1.022a.304.304 0 0 1-.112.238.324.324 0 0 1-.238.098h-1.288Zm.056 8.47a.327.327 0 0 1-.238-.098.325.325 0 0 1-.098-.238v-6.608c0-.103.033-.182.098-.238a.327.327 0 0 1 .238-.098h1.19c.094 0 .173.033.238.098a.321.321 0 0 1 .098.238v6.608a.321.321 0 0 1-.098.238.324.324 0 0 1-.238.098h-1.19Zm6.854.14c-1.102 0-1.951-.28-2.548-.84-.598-.56-.92-1.335-.966-2.324l-.014-.616.014-.616c.046-.98.373-1.75.98-2.31.606-.569 1.451-.854 2.534-.854 1.073 0 1.913.285 2.52.854.606.56.933 1.33.98 2.31.009.112.014.317.014.616s-.005.504-.014.616c-.047.989-.369 1.764-.966 2.324-.598.56-1.442.84-2.534.84Zm0-1.414c.494 0 .872-.154 1.134-.462.27-.308.415-.761.434-1.358a6.9 6.9 0 0 0 .014-.546 6.9 6.9 0 0 0-.014-.546c-.019-.597-.164-1.05-.434-1.358-.271-.317-.649-.476-1.134-.476-.495 0-.878.159-1.148.476-.271.308-.416.761-.434 1.358l-.014.546.014.546c.018.597.163 1.05.434 1.358.27.308.653.462 1.148.462Zm5.65 1.274a.327.327 0 0 1-.238-.098.325.325 0 0 1-.098-.238v-6.608c0-.103.033-.182.098-.238a.327.327 0 0 1 .238-.098h1.162c.103 0 .182.033.238.098.066.056.098.135.098.238v.574c.57-.7 1.349-1.05 2.338-1.05.859 0 1.54.28 2.044.84.504.56.756 1.33.756 2.31v3.934a.321.321 0 0 1-.098.238.297.297 0 0 1-.238.098h-1.26a.327.327 0 0 1-.238-.098.325.325 0 0 1-.098-.238v-3.85c0-.541-.135-.961-.406-1.26-.261-.308-.639-.462-1.134-.462-.476 0-.858.154-1.148.462-.289.308-.434.728-.434 1.26v3.85a.321.321 0 0 1-.098.238.297.297 0 0 1-.238.098h-1.246Z"/><path fill="#E16B5A" d="M154.768 54.01s30.011-1.325 45.916 28.249h-48.468s-9.153-.296-16.956 10.594c-2.251 4.561-4.651 9.27-1.95 18.538-3.901-6.472-20.708-35.164-20.708-35.164s11.855-21.041 42.166-22.218Z"/><path fill="#FFD464" d="M199.122 129.095s-13.838 26.143-47.912 24.857c4.204-7.133 24.24-41.153 24.24-41.153s4.837-7.626-.875-19.696c-2.903-4.192-11.7-8.586-21.237-10.928 7.67-.075 47.251.005 47.251.005s12.652 20.59-1.467 46.915Z"/><path fill="#74B340" d="M110.628 129.294s-16.17-24.825 2.004-53.116l24.225 41.163s4.314 7.92 17.832 9.104c5.153-.368 10.514-.682 17.351-7.608-3.77 6.55-20.713 35.162-20.713 35.162s-24.51.449-40.699-24.705Z"/><ellipse cx="154.646" cy="104.406" fill="#fff" rx="23.064" ry="22.656"/><ellipse cx="154.638" cy="104.406" fill="#2995CC" rx="18.292" ry="17.969"/><path fill="#268CBF" d="M154.643 86.441c-.364 0-.725.014-1.082.034 9.597.55 17.209 8.369 17.209 17.934 0 9.568-7.612 17.386-17.209 17.937.358.02.719.034 1.082.034 10.101 0 18.292-8.046 18.292-17.971 0-9.922-8.191-17.968-18.292-17.968Z"/></g><defs><filter id="a" width="310" height="401" x="0" y="0" color-interpolation-filters="sRGB" filterUnits="userSpaceOnUse"><feFlood flood-opacity="0" result="BackgroundImageFix"/><feColorMatrix in="SourceAlpha" result="hardAlpha" values="0 0 0 0 0 0 0 0 0 0 0 0 0 0 0 0 0 0 127 0"/><feMorphology in="SourceAlpha" radius="5" result="effect1_dropShadow_0_693"/><feOffset dy="10"/><feGaussianBlur stdDeviation="10"/><feColorMatrix values="0 0 0 0 0.285333 0 0 0 0 0.363695 0 0 0 0 0.811481 0 0 0 0.20012 0"/><feBlend in2="BackgroundImageFix" result="effect1_dropShadow_0_693"/><feBlend in="SourceGraphic" in2="effect1_dropShadow_0_693" result="shape"/></filter><filter id="d" width="240" height="60" x="35" y="304" color-interpolation-filters="sRGB" filterUnits="userSpaceOnUse"><feFlood flood-opacity="0" result="BackgroundImageFix"/><feColorMatrix in="SourceAlpha" result="hardAlpha" values="0 0 0 0 0 0 0 0 0 0 0 0 0 0 0 0 0 0 127 0"/><feMorphology in="SourceAlpha" radius="4" result="effect1_dropShadow_0_693"/><feOffset dy="8"/><feGaussianBlur stdDeviation="4"/><feColorMatrix values="0 0 0 0 0.285333 0 0 0 0 0.363695 0 0 0 0 0.811481 0 0 0 0.20012 0"/><feBlend in2="BackgroundImageFix" result="effect1_dropShadow_0_693"/><feBlend in="SourceGraphic" in2="effect1_dropShadow_0_693" result="shape"/></filter><clipPath id="c"><path fill="#fff" d="M45 186h220v58H45z"/></clipPath></defs></svg>